<svg xmlns="http://www.w3.org/2000/svg" viewBox="0 0 68.86 68.71"><defs><style>.cls-1{fill:#dbdbdb;}</style></defs><g id="Capa_2" data-name="Capa 2"><g id="Capa_1-2" data-name="Capa 1"><path d="M34.45,68.68C16,69.52,0,52.8,0,34.36S16.05-.08,34.61,0c18.22.08,34.2,16,34.25,34.31C68.92,52.84,52.81,69.5,34.45,68.68Z"/><path class="cls-1" d="M28.35,35.13h-5.3V26.21l5.17,0c0-2.28,0-4.7,0-7.11.05-4.9,3-8.29,7.9-8.63,3.18-.23,6.39,0,9.73,0v8.82l-6.22,0a1.31,1.31,0,0,0-1.31,1.32c0,1.92.05,3.94,0,5.94h7.48c0,2.92,0,5.29,0,8.49H38.41V59.78H28.35Z"/></g></g></svg>