<svg xmlns="http://www.w3.org/2000/svg" viewBox="0 0 68.86 68.71"><defs><style>.cls-1{fill:#fff;}</style></defs><g id="Capa_2" data-name="Capa 2"><g id="Capa_1-2" data-name="Capa 1"><path d="M34.45,68.68C16,69.52,0,52.8,0,34.36S16.05-.08,34.61,0c18.22.08,34.2,16,34.25,34.31C68.92,52.84,52.81,69.5,34.45,68.68Z"/><path class="cls-1" d="M29.44,19.74a56.21,56.21,0,0,0-14.9,1.64c-2.25.57-4.45,1.49-3.73,4.36s3,2.69,5.53,2.14c12.51-2.63,24.77-2.07,36.52,3.49,2.16,1,4.43,2.26,6-.65s-.79-4.16-2.9-5.24C47.61,21.2,38.66,19.82,29.44,19.74Zm-.75,11.68a51.24,51.24,0,0,0-11.82,1.49c-2,.52-4.36,1-3.71,3.83.61,2.71,2.84,2.07,4.72,1.69a48.47,48.47,0,0,1,21.37,0A59.53,59.53,0,0,1,50.39,42.6c1.64.77,3,.53,3.85-1.22s-.05-2.71-1.27-3.56a21.16,21.16,0,0,0-3-1.68C43.24,32.9,36.07,31.69,28.69,31.42Zm-.25,11.19A52.76,52.76,0,0,0,16.65,44c-1.41.27-2.37,1-2.12,2.66s1.38,2,2.83,1.82c.89-.13,1.76-.34,2.64-.52,8.84-1.71,17.42-1.22,25.54,3.07,1.48.78,3.13,2,4.31-.09,1.3-2.32-.82-3.17-2.35-4C41.71,43.78,35.44,42.6,28.44,42.61Z"/><path class="cls-1" d="M29.44,19.74c9.22.08,18.17,1.46,26.48,5.74,2.11,1.08,4.44,2.3,2.9,5.24s-3.8,1.68-6,.65c-11.75-5.56-24-6.12-36.52-3.49-2.57.55-4.77.86-5.53-2.14s1.48-3.79,3.73-4.36A56.21,56.21,0,0,1,29.44,19.74Z"/><path class="cls-1" d="M28.69,31.42c7.38.27,14.55,1.48,21.26,4.72a21.16,21.16,0,0,1,3,1.68c1.22.85,2.11,1.91,1.27,3.56s-2.21,2-3.85,1.22a59.53,59.53,0,0,0-11.14-4.18,48.47,48.47,0,0,0-21.37,0c-1.88.38-4.11,1-4.72-1.69-.65-2.87,1.69-3.31,3.71-3.83A51.24,51.24,0,0,1,28.69,31.42Z"/><path class="cls-1" d="M28.44,42.61c7,0,13.27,1.17,19.06,4.32,1.53.84,3.65,1.69,2.35,4-1.18,2.11-2.83.87-4.31.09C37.42,46.74,28.84,46.25,20,48c-.88.18-1.75.39-2.64.52-1.45.21-2.58-.16-2.83-1.82s.71-2.39,2.12-2.66A52.76,52.76,0,0,1,28.44,42.61Z"/></g></g></svg>