<svg xmlns="http://www.w3.org/2000/svg" viewBox="0 0 68.86 68.71"><defs><style>.cls-1{fill:#fff;}</style></defs><g id="Capa_2" data-name="Capa 2"><g id="Capa_1-2" data-name="Capa 1"><path d="M34.45,68.68C16,69.52,0,52.8,0,34.36S16.05-.08,34.61,0c18.22.08,34.2,16,34.25,34.31C68.92,52.84,52.81,69.5,34.45,68.68Z"/><path class="cls-1" d="M50.59,19.9c3.8.27,5.72,1.79,6.25,5.61a64.63,64.63,0,0,1-.09,19.24C56.18,48.24,54.52,49.68,51,50a179.87,179.87,0,0,1-31.65,0c-3.26-.32-4.93-1.79-5.55-5a57.9,57.9,0,0,1-.12-19.61c.57-3.75,2.46-5.21,6.4-5.48C25.23,19.51,45.58,19.54,50.59,19.9ZM31.22,28.33V41.59L42.64,35Z"/></g></g></svg>