<svg xmlns="http://www.w3.org/2000/svg" viewBox="0 0 116.2 137.59"><defs><style>.cls-1{fill:#fff;}.cls-2{fill:#1e1e1e;}.cls-3{fill:#fc0;}.cls-4{fill:#f4f4f4;}.cls-5{fill:#f9d266;}.cls-6{fill:#fce797;}.cls-7{fill:#ff9000;}</style></defs><g id="Capa_2" data-name="Capa 2"><g id="Capa_1-2" data-name="Capa 1"><polygon class="cls-1" points="48.24 77.9 40.64 81.66 29.24 70.26 32.63 65.63 48.24 77.9"/><polygon class="cls-1" points="48.4 77.9 56 81.66 67.4 70.26 64.02 65.63 48.4 77.9"/><path class="cls-1" d="M29.28,39.89V36.06l-.07,0,6.23-9.36a53.42,53.42,0,0,1-6.27-2L21.61,36l.07,0v3.83c0,18,16.5,34.7,26.6,34.7a12.58,12.58,0,0,0,3.81-.68C42.13,70.64,29.28,55.82,29.28,39.89Z"/><path class="cls-2" d="M1.91,107.15A1.91,1.91,0,0,1,0,105.24V92.48c0-7.46,4-10.4,10.82-13,2-.76,8.26-3.07,13.24-5.45a1.91,1.91,0,0,1,1.65,3.45C20.57,80,14.23,82.33,12.15,83.11c-6.53,2.44-8.32,4.45-8.32,9.37v12.76A1.91,1.91,0,0,1,1.91,107.15Z"/><path class="cls-2" d="M93.8,107.15a1.91,1.91,0,0,1-1.92-1.91V92.48c0-4.92-1.79-6.93-8.32-9.37C77.91,81,73.47,79.18,70,77.51a1.92,1.92,0,0,1,1.65-3.46c3.38,1.62,7.71,3.41,13.25,5.47,6.85,2.56,10.82,5.5,10.82,13v12.76A1.91,1.91,0,0,1,93.8,107.15Z"/><path class="cls-2" d="M48,77.05c-10.82,0-28.71-17.21-28.71-36.83a1.92,1.92,0,1,1,3.83,0c0,17,15.52,33,24.88,33s24.89-16,24.89-33a1.91,1.91,0,1,1,3.82,0C76.68,59.84,58.79,77.05,48,77.05Z"/><path class="cls-2" d="M21.06,38.24a1.83,1.83,0,0,1-.47-.05,1.91,1.91,0,0,1-1.44-1.68c-1-10.82,1.33-19.44,7-25.62C34.31,1.89,47.59,0,57.29,0A68.58,68.58,0,0,1,67.35.7a1.93,1.93,0,0,1,1.58,1.68,1.91,1.91,0,0,1-1.17,2,5.41,5.41,0,0,0-3.21,2.92,7.11,7.11,0,0,0-.12,4.24,12.29,12.29,0,0,1,8.88,4.21C77,20,78,27,76.55,36.63a1.93,1.93,0,0,1-1.48,1.57,1.89,1.89,0,0,1-2-.81L66.25,27.18A56.38,56.38,0,0,1,48,30.59a58.38,58.38,0,0,1-18.51-3.42L22.65,37.39A1.92,1.92,0,0,1,21.06,38.24ZM67,22.93a1.92,1.92,0,0,1,1.59.85l4.72,7.09c.3-5.74-.69-10.06-2.91-12.65A8.36,8.36,0,0,0,64,15.35a5.16,5.16,0,0,0-.66,0,1.94,1.94,0,0,1-2-1.13c-.08-.18-1.9-4.42-.3-8.4A8.46,8.46,0,0,1,62,4c-1.37-.09-3-.16-4.75-.16C48.36,3.83,36.2,5.5,29,13.46,25.09,17.69,23,23.34,22.78,30.3l4.34-6.52a1.92,1.92,0,0,1,2.32-.71A56,56,0,0,0,48,26.76a53.69,53.69,0,0,0,18.28-3.68A2,2,0,0,1,67,22.93Z"/><path class="cls-2" d="M74.77,42.13a1.91,1.91,0,0,1-1.91-1.91V36.33a1.91,1.91,0,1,1,3.82,0v3.89A1.91,1.91,0,0,1,74.77,42.13Z"/><path class="cls-2" d="M21.17,42.13a1.91,1.91,0,0,1-1.91-1.91V36.33a1.92,1.92,0,0,1,3.83,0v3.89A1.92,1.92,0,0,1,21.17,42.13Z"/><path class="cls-2" d="M40.26,84.18a1.91,1.91,0,0,1-1.36-.56L27.42,72.14a1.92,1.92,0,1,1,2.71-2.71L40.64,79.94l6.48-3.21a1.91,1.91,0,1,1,1.7,3.43L41.11,84A1.83,1.83,0,0,1,40.26,84.18Z"/><path class="cls-2" d="M55.57,84.18a1.83,1.83,0,0,1-.85-.2L47,80.16a1.91,1.91,0,1,1,1.69-3.43l6.49,3.21L65.7,69.43a1.92,1.92,0,1,1,2.71,2.71L56.92,83.62A1.87,1.87,0,0,1,55.57,84.18Z"/><path class="cls-2" d="M48.06,88a1.91,1.91,0,0,1-1.35-.56l-3.83-3.83a1.91,1.91,0,0,1,2.71-2.7l3.82,3.82A1.92,1.92,0,0,1,48.06,88Z"/><path class="cls-2" d="M48.06,88a1.92,1.92,0,0,1-1.35-3.27l3.83-3.82a1.91,1.91,0,0,1,2.7,2.7l-3.83,3.83A1.91,1.91,0,0,1,48.06,88Z"/><path class="cls-2" d="M44.24,103.32H44a1.9,1.9,0,0,1-1.69-2.11L44.24,84a1.89,1.89,0,0,1,2.12-1.69,1.91,1.91,0,0,1,1.69,2.12l-1.91,17.22A1.91,1.91,0,0,1,44.24,103.32Z"/><path class="cls-2" d="M51.89,103.32a1.91,1.91,0,0,1-1.9-1.7L48.07,84.4A1.92,1.92,0,0,1,51.88,84l1.91,17.23a1.9,1.9,0,0,1-1.69,2.11Z"/><path class="cls-2" d="M93.8,107.15H1.91a1.92,1.92,0,0,1,0-3.83H93.8a1.92,1.92,0,0,1,0,3.83Z"/><path class="cls-3" d="M96.42,99v21l-8.8-8.8L78.83,120V95.45a8.68,8.68,0,0,0,3.54.88A6.24,6.24,0,0,1,86.22,98a8.73,8.73,0,0,0,10.2,1Z"/><path class="cls-3" d="M105.21,95.45v39.94l-8.79-8.8-8.8,8.8V111.2l8.8,8.8V99a8.74,8.74,0,0,0,1.4-1,6.24,6.24,0,0,1,3.85-1.68,8.72,8.72,0,0,0,3.54-.88Z"/><path class="cls-4" d="M72.23,84a6.18,6.18,0,0,1,1.68,3.84,8.73,8.73,0,0,0,8.45,8.45A6.24,6.24,0,0,1,86.21,98a8.71,8.71,0,0,0,11.6,0,6.24,6.24,0,0,1,3.85-1.68,8.73,8.73,0,0,0,8.45-8.45,6.15,6.15,0,0,1,1.7-3.84,8.74,8.74,0,0,0,0-11.61,6.18,6.18,0,0,1-1.68-3.85,8.74,8.74,0,0,0-8.45-8.45,6.18,6.18,0,0,1-3.86-1.68,8.71,8.71,0,0,0-11.6,0,6.24,6.24,0,0,1-3.85,1.68,8.72,8.72,0,0,0-8.45,8.44,6.19,6.19,0,0,1-1.69,3.86A8.74,8.74,0,0,0,72.23,84Z"/><circle class="cls-5" cx="92.02" cy="78.22" r="10.99"/><path class="cls-6" d="M81,78.22a10.88,10.88,0,0,0,1.37,5.23A10.92,10.92,0,0,0,97.24,68.6,10.92,10.92,0,0,0,81,78.22Z"/><path class="cls-7" d="M113.93,84.82A10.83,10.83,0,0,0,113.44,71a4.16,4.16,0,0,1-1.13-2.46,10.92,10.92,0,0,0-10.57-10.57,4.16,4.16,0,0,1-2.46-1.13,11.22,11.22,0,0,0-14.53,0,4.1,4.1,0,0,1-2.45,1.13A10.93,10.93,0,0,0,71.72,68.51,4.09,4.09,0,0,1,70.6,71c-3.28,3.66-2.73,10.47-1,13.11.62,1,1.74,2,1.87,2.94a18.94,18.94,0,0,0,2.08,6.59,13.27,13.27,0,0,0,1.38,1.76,5.82,5.82,0,0,1,1.65,2.39,1.29,1.29,0,0,1,.06.25h0v22a2.19,2.19,0,0,0,3.75,1.55l5-5v18.88a2.21,2.21,0,0,0,2.2,2.2,2.25,2.25,0,0,0,1.56-.65l7.24-7.24,7.24,7.24a2.2,2.2,0,0,0,1.55.65,2.17,2.17,0,0,0,.84-.17,2.2,2.2,0,0,0,1.36-2V99.26c0-.9.08-2.24.08-2.24a15.85,15.85,0,0,0,3.17-3.67,10.75,10.75,0,0,0,1.49-4.13h0C112.1,87.52,113.93,84.82,113.93,84.82ZM86.07,109.66l-5,5V98.36a10.75,10.75,0,0,0,1.27.16,4,4,0,0,1,2.45,1.13A11,11,0,0,0,92,102.41a11.67,11.67,0,0,0,2.2-.24V114.7l-5-5A2.2,2.2,0,0,0,86.07,109.66ZM103,130.08l-5-5a2.2,2.2,0,0,0-3.11,0l-5,5V116.51l5,5A2.19,2.19,0,0,0,98.61,120V100.21h-.09c.25-.19.52-.35.76-.56a4,4,0,0,1,2.46-1.13,10.75,10.75,0,0,0,1.27-.16Zm7.14-47.51a8.35,8.35,0,0,0-2.23,5.23,6.54,6.54,0,0,1-6.33,6.33,8.27,8.27,0,0,0-5.23,2.23,6.71,6.71,0,0,1-8.69,0,8.22,8.22,0,0,0-5.23-2.23,6.52,6.52,0,0,1-6.32-6.33,8.31,8.31,0,0,0-2.24-5.23,6.55,6.55,0,0,1,0-8.69,8.33,8.33,0,0,0,2.24-5.23,6.53,6.53,0,0,1,6.32-6.33,8.22,8.22,0,0,0,5.23-2.23,6.68,6.68,0,0,1,8.69,0,8.27,8.27,0,0,0,5.23,2.23,6.54,6.54,0,0,1,6.33,6.33,8.37,8.37,0,0,0,2.23,5.23A6.52,6.52,0,0,1,110.15,82.57Z"/><path class="cls-7" d="M92,65a13.2,13.2,0,1,0,13.19,13.19A13.19,13.19,0,0,0,92,65Zm0,22a8.8,8.8,0,1,1,8.79-8.8A8.8,8.8,0,0,1,92,87Z"/></g></g></svg>