<svg xmlns="http://www.w3.org/2000/svg" viewBox="0 0 136.82 117.59"><defs><style>.cls-1{fill:#fce797;}.cls-2{fill:#ff9000;}</style></defs><g id="Capa_2" data-name="Capa 2"><g id="Capa_1-2" data-name="Capa 1"><path d="M79.11,68.57a2,2,0,0,0,.1.49,1.84,1.84,0,0,0,.49.85v0l7,7L62.61,101.12a2.12,2.12,0,0,0,0,3L75.43,117a2.15,2.15,0,0,0,3,0l25.65-25.66a2.16,2.16,0,0,0,.61-1.21L109,60.17v-.45a2.77,2.77,0,0,0-.1-.5,1.91,1.91,0,0,0-.49-.84v0l-7.05-7L124,28.68l4.91,4.9a2.14,2.14,0,0,0,3.63-1.2L136.8,2.44A2.14,2.14,0,0,0,134.37,0L104.44,4.3a2.13,2.13,0,0,0-1.82,2.41,2.07,2.07,0,0,0,.61,1.22l4.9,4.9L84,37a2.19,2.19,0,0,0-.61,1.21L79.11,68.12a.49.49,0,0,0,0,.17,1.31,1.31,0,0,0,0,.28Zm21.48,20.22L77,112.43l-9.81-9.8L91.29,78.48l12.57-12.57Zm3.27-28.92L89.77,74l-5.52-5.53L98.33,54.34ZM87.51,39.5l25.16-25.16a2.14,2.14,0,0,0,0-3l-3.39-3.39,22.87-3.27-3.26,22.88-3.39-3.39a2.14,2.14,0,0,0-3,0L96.82,49.8,84.25,62.37Z"/><circle class="cls-1" cx="34.39" cy="62.52" r="31.74"/><path class="cls-2" d="M34.39,96.9A34.39,34.39,0,1,0,0,62.52,34.38,34.38,0,0,0,34.39,96.9Zm0-63.48a29.1,29.1,0,1,1-29.1,29.1A29.1,29.1,0,0,1,34.39,33.42Z"/><path class="cls-2" d="M23.81,54.58h0a2.65,2.65,0,0,1,2.64,2.65h0a2.64,2.64,0,0,1-2.64,2.64h0a2.64,2.64,0,0,1-2.65-2.64h0A2.65,2.65,0,0,1,23.81,54.58Z"/><path class="cls-2" d="M45,54.58h0a2.65,2.65,0,0,1,2.64,2.65h0A2.64,2.64,0,0,1,45,59.87h0a2.64,2.64,0,0,1-2.65-2.64h0A2.65,2.65,0,0,1,45,54.58Z"/><path class="cls-2" d="M55,72.51l.58-.58a2.63,2.63,0,0,0,0-3.74h0a2.64,2.64,0,0,0-3.74,0l-.58.59a23.82,23.82,0,0,1-33.67,0L17,68.18a2.64,2.64,0,0,0-3.74,0h0a2.63,2.63,0,0,0,0,3.74l.58.58A29.12,29.12,0,0,0,55,72.51Z"/></g></g></svg>