<svg xmlns="http://www.w3.org/2000/svg" viewBox="0 0 95.01 107.34"><defs><style>.cls-1{fill:#fff7e9;}.cls-2{fill:#fc0;}.cls-3{fill:#ead300;}.cls-4{fill:#f4f4f4;}.cls-5{fill:#ff9000;}.cls-6{fill:#1e1e1e;}</style></defs><g id="Capa_2" data-name="Capa 2"><g id="Capa_1-2" data-name="Capa 1"><path class="cls-1" d="M94.4,25.43A23.61,23.61,0,0,1,80.51,46.92V52H61V46.92A23.61,23.61,0,1,1,94.4,25.43Zm-9.32,2.13V23.71l-2.86-.48a14.26,14.26,0,0,0-1.63-3.93l1.72-2.37-2.78-2.79-2.38,1.72a13.32,13.32,0,0,0-3.92-1.62l-.49-2.85H68.82l-.49,2.86a14.51,14.51,0,0,0-3.92,1.63L62,14.16l-2.78,2.78L61,19.32a13.34,13.34,0,0,0-1.63,3.92l-2.86.49v3.92l2.86.49A14.2,14.2,0,0,0,61,32.06l-1.72,2.38L62,37.22l2.38-1.72a13.34,13.34,0,0,0,3.92,1.63L68.82,40h3.92l.49-2.86a14.2,14.2,0,0,0,3.92-1.63l2.38,1.72,2.78-2.78L80.59,32a11.78,11.78,0,0,0,1.55-3.92Z"/><path class="cls-2" d="M85.08,23.71v3.85L82.14,28A12,12,0,0,1,80.59,32l1.72,2.45-2.78,2.77-2.38-1.72a13.34,13.34,0,0,1-3.92,1.63L72.74,40H68.82l-.49-2.86a14.2,14.2,0,0,1-3.92-1.63L62,37.19l-2.78-2.78L61,32a13.34,13.34,0,0,1-1.63-3.92l-2.86-.49V23.7l2.86-.49A14.2,14.2,0,0,1,61,19.29l-1.72-2.38L62,14.13l2.38,1.72a13.34,13.34,0,0,1,3.92-1.63l.49-2.86h3.92l.49,2.86a14.2,14.2,0,0,1,3.92,1.63l2.38-1.72,2.78,2.78-1.72,2.38a13.34,13.34,0,0,1,1.63,3.92Zm-9.23,2a5.07,5.07,0,0,0-10.13,0h0a5.07,5.07,0,1,0,10.13,0Z"/><rect class="cls-3" x="60.98" y="62.36" width="19.53" height="4.63"/><rect class="cls-3" x="60.98" y="57.2" width="19.53" height="5.16"/><rect class="cls-3" x="60.98" y="51.98" width="19.53" height="5.18"/><path class="cls-4" d="M70.79,20.62a5.07,5.07,0,1,1-5.07,5.06A5.05,5.05,0,0,1,70.79,20.62Z"/><path class="cls-5" d="M77.61,73.87H61.75a1.63,1.63,0,1,1,0-3.25H77.61a1.63,1.63,0,0,1,0,3.25Z"/><path class="cls-5" d="M95,25.43A24.93,24.93,0,0,0,68.74.21c-13.57,0-24.3,11.18-24.3,25.22A26,26,0,0,0,58.25,48v2.13H56a1.63,1.63,0,0,0,0,3.25h2.21v2.45H56a1.63,1.63,0,0,0,0,3.25h2.21v1.63H56a1.63,1.63,0,0,0,0,3.25h2.21v3a1.87,1.87,0,0,0,1.62,1.88H79.4A2,2,0,0,0,81.12,67v-3h2.21a1.63,1.63,0,0,0,0-3.25H81.12V59.06h2.21a1.63,1.63,0,0,0,0-3.25H81.12V53.36h2.21a1.63,1.63,0,0,0,0-3.25H81.12V48A26,26,0,0,0,95,25.43ZM77.84,65.63H61.52V64H77.86v1.62Zm0-4.91H61.52V59.1H77.86v1.62Zm0-4.89H61.52V53.37H77.86v2.46ZM61.52,50.11V46.92a1.47,1.47,0,0,0-1-1.47,22,22,0,1,1,18.22,0,1.51,1.51,0,0,0-.89,1.47v3.19Z"/><path class="cls-5" d="M73,41.62H66.33l-.48-3.19a14.06,14.06,0,0,1-2.46-1l-2.61,1.88L56,34.58,57.92,32a16,16,0,0,1-1-2.46L53.75,29V22.34l3.19-.49a14.23,14.23,0,0,1,1-2.45L56,16.79l4.74-4.74,2.61,1.88a16,16,0,0,1,2.46-1l.48-3.19H73l.49,3.19a11.2,11.2,0,0,1,2.38,1l2.68-1.88,4.74,4.66L81.44,19.4a16.41,16.41,0,0,1,1,2.37l3.19.58V29l-3.27.58a11.08,11.08,0,0,1-1,2.37l2,2.69-4.74,4.74L76,37.47a17.43,17.43,0,0,1-2.45,1ZM69.1,38.35h1.14l.41-2.61,1.14-.25a10.66,10.66,0,0,0,3.34-1.39l.9-.58,2.2,1.54.81-.81-1.62-2.2.65-1a11.28,11.28,0,0,0,1.4-3.34l.15-1.07,2.69-.48V25.1l-2.61-.48-.25-1.06a10.48,10.48,0,0,0-1.39-3.35l-.58-1L79,17.1l-.82-.81L76,17.83l-.89-.57a11,11,0,0,0-3.35-1.4l-1.14-.25L70.23,13H69.08l-.4,2.61-1.14.25a10.5,10.5,0,0,0-3.35,1.4l-.89.57-2.21-1.54-.81.81,1.55,2.2-.58.9a10,10,0,0,0-1.39,3.34l-.25,1.14L57,25.09v1.14l2.61.41.25,1.14a10.21,10.21,0,0,0,1.39,3.34l.58.9-1.55,2.2.81.81,2.21-1.54.89.57a10.73,10.73,0,0,0,3.35,1.4l1.14.25Z"/><path class="cls-5" d="M69.68,32.3a6.7,6.7,0,1,1,6.69-6.69,6.68,6.68,0,0,1-6.69,6.69Zm0-10.06a3.43,3.43,0,1,0,3.42,3.43v-.08A3.42,3.42,0,0,0,69.68,22.24Z"/><path class="cls-6" d="M78.13,85.31a2.14,2.14,0,0,0-.8-.14h-3a2.18,2.18,0,0,1-2.37-2,2.94,2.94,0,0,1,0-.42V73.87c-.94,0-4.12-.06-4.73,0V82.8A6.9,6.9,0,0,0,74,89.9h2.75a2.17,2.17,0,0,1,2.39,1.94,2.94,2.94,0,0,1,0,.42v10.35H42.59V92.26c0-7.48-4.65-9.46-7.1-9.46H21.29a4.45,4.45,0,0,1-4.73-4.16,5.42,5.42,0,0,1,0-.57V69.25a2.38,2.38,0,0,0-.79-1.77A13.69,13.69,0,0,0,7.1,63.87a2.07,2.07,0,0,1-2.31-1.81v0L16.27,41.21a2.38,2.38,0,0,0,.29-1.14V35.49A30.8,30.8,0,0,1,47.32,4.73h3.4a23.27,23.27,0,0,1,2.16-2.07C54.22,1.66,57,0,57,0H47.32A35.53,35.53,0,0,0,11.83,35.49v4L.3,60.37A2.29,2.29,0,0,0,0,61.51a6.91,6.91,0,0,0,6.7,7.1h.4a8.41,8.41,0,0,1,4.73,1.77v7.69a9.2,9.2,0,0,0,8.93,9.46,4.68,4.68,0,0,0,.53,0H35.42c.41,0,2.43.38,2.43,4.73V105a2.36,2.36,0,0,0,2.37,2.36H81.47A2.36,2.36,0,0,0,83.84,105V92.26A6.75,6.75,0,0,0,78.13,85.31Z"/></g></g></svg>