<svg xmlns="http://www.w3.org/2000/svg" viewBox="0 0 68.86 68.71"><defs><style>.cls-1{fill:#fff;}</style></defs><g id="Capa_2" data-name="Capa 2"><g id="Capa_1-2" data-name="Capa 1"><path d="M34.45,68.68C16,69.52,0,52.8,0,34.36S16.05-.08,34.61,0c18.22.08,34.2,16,34.25,34.31C68.92,52.84,52.81,69.5,34.45,68.68Z"/><path class="cls-1" d="M56.5,34.46c0,3.09.1,6.19,0,9.28-.3,7.58-4.89,12.35-12.39,12.59-6.45.21-12.92.22-19.36,0-7.16-.24-11.88-4.82-12.19-12-.3-6.7-.3-13.42,0-20.11s4.79-11.41,11.57-11.76a203.35,203.35,0,0,1,20.51,0c7.15.34,11.51,5.09,11.84,12.32C56.62,28,56.5,31.23,56.5,34.46ZM34.6,16.87v0c-3.23,0-6.46-.15-9.67,0-5.06.29-7.75,2.73-7.93,7.66-.24,6.56-.24,13.14,0,19.7.16,4.76,2.8,7.45,7.55,7.62,6.69.25,13.41.23,20.11,0,4.49-.17,7.05-2.91,7.35-7.41a136.78,136.78,0,0,0,0-20c-.37-4.54-2.84-7.13-7.35-7.45C41.31,16.68,38,16.87,34.6,16.87Z"/><path class="cls-1" d="M34.59,23A11.2,11.2,0,0,1,45.88,34.66,11.2,11.2,0,0,1,34.42,45.77c-6.55,0-11.28-5-11.21-11.66A11.06,11.06,0,0,1,34.59,23Zm7.06,11.33a7.36,7.36,0,0,0-7.2-7.13,7.5,7.5,0,0,0-7.16,7.23,7.41,7.41,0,0,0,7.26,7.11A7.35,7.35,0,0,0,41.65,34.33Z"/><circle class="cls-1" cx="46.45" cy="23" r="3.47"/></g></g></svg>